<svg height="512pt" viewBox="0 0 512 512" width="512pt" xmlns="http://www.w3.org/2000/svg"><path d="m52.195312 459.804688v-459.804688h-52.195312v512h512v-52.195312zm444.808594 37.199218h-482.007812v-482.007812h22.203125v459.804687h459.804687zm0 0"/><path d="m103.929688 173.425781h60.878906v273.929688h14.992187v-288.921875h-90.863281v288.921875h14.992188zm0 0"/><path d="m320.03125 447.355469v-167.46875h-90.863281v167.46875h14.992187v-152.472657h60.878906v152.472657zm0 0"/><path d="m384.390625 239.902344h60.878906v207.453125h14.996094v-222.449219h-90.867187v222.449219h14.992187zm0 0"/><path d="m114.390625 140.070312v8.585938h14.992187v-8.585938h7.632813v8.585938h14.996094v-8.585938h2.589843l10.976563-10.976562v-26.882812l-3.480469-3.480469 3.480469-3.480469v-26.878906l-10.976563-10.976563h-2.589843v-8.589843h-14.996094v8.589843h-7.632813v-8.589843h-14.992187v8.589843h-13.753906v14.992188h7.714843v52.691406h-7.714843v14.992187zm8.957031-33.839843h25.042969l2.195313 2.191406v14.460937l-2.195313 2.191407h-25.042969zm27.238282-31.648438v14.457031l-2.195313 2.195313h-25.042969v-18.847656h25.042969zm0 0"/><path d="m456.097656 146.613281-41.265625-66.691406-41.265625 66.691406 41.265625 66.691407zm-55.636718 14.972657 14.371093 5.515624 14.367188-5.515624-14.367188 23.222656zm35.679687-18.726563-21.308594 8.183594-21.308593-8.183594 21.308593-34.4375zm0 0"/><path d="m292.730469 218.027344c-1.550781 0-3.066407.15625-4.53125.445312l-2.226563-3.859375 2.214844-3.835937c1.46875.289062 2.988281.441406 4.542969.441406 12.851562 0 23.308593-10.453125 23.308593-23.304688 0-12.851562-10.457031-23.308593-23.308593-23.308593-12.851563 0-23.308594 10.457031-23.308594 23.308593 0 5.875 2.1875 11.25 5.785156 15.351563l-2.222656 3.851563h-4.433594c-3.128906-9.183594-11.839843-15.804688-22.070312-15.804688-12.847657 0-23.304688 10.453125-23.304688 23.300781 0 12.851563 10.457031 23.304688 23.304688 23.304688 10.230469 0 18.941406-6.621094 22.066406-15.804688h4.4375l2.234375 3.867188c-3.59375 4.101562-5.777344 9.46875-5.777344 15.335937 0 12.839844 10.449219 23.285156 23.289063 23.285156 12.839843 0 23.285156-10.445312 23.285156-23.285156s-10.445313-23.289062-23.285156-23.289062zm0-38.425782c4.582031 0 8.3125 3.726563 8.3125 8.3125 0 4.582032-3.726563 8.3125-8.3125 8.3125-4.585938 0-8.3125-3.730468-8.3125-8.3125 0-4.585937 3.726562-8.3125 8.3125-8.3125zm-46.246094 43.324219c-4.585937 0-8.3125-3.730469-8.3125-8.3125s3.726563-8.308593 8.3125-8.308593c4.582031 0 8.308594 3.726562 8.308594 8.308593s-3.726563 8.3125-8.308594 8.3125zm46.246094 26.679688c-4.574219 0-8.292969-3.71875-8.292969-8.289063 0-4.574218 3.71875-8.292968 8.292969-8.292968s8.292969 3.71875 8.292969 8.292968c0 4.570313-3.71875 8.289063-8.292969 8.289063zm0 0"/><path d="m154.8125 380.683594h-14.996094v-139.78125h14.996094zm0-149.777344h-14.996094v-14.996094h14.996094zm0-24.992188h-14.996094v-14.996093h14.996094zm0 0"/><path d="m295.042969 442.359375h-14.996094v-80.003906h14.996094zm0-90h-14.996094v-14.992187h14.996094zm0-24.988281h-14.996094v-14.996094h14.996094zm0 0"/><path d="m435.273438 398.675781h-14.996094v-91.296875h14.996094zm0-101.296875h-14.996094v-14.992187h14.996094zm0-24.988281h-14.996094v-14.996094h14.996094zm0 0"/></svg>