<svg height="512pt" viewBox="0 -28 512.001 512" width="512pt" xmlns="http://www.w3.org/2000/svg"><path d="m119.78125 389.382812-10.605469 10.609376 30.011719 30.007812h49.945312v-15h-43.734374zm0 0"/><path d="m138.132812 62.183594 47.179688-47.183594h141.375l47.179688 47.183594v69.195312h15v-75.410156l-55.96875-55.96875h-153.796876l-55.96875 55.96875v75.410156h15zm0 0"/><path d="m342.109375 131.378906v-56.039062l-28.578125-28.578125h-115.0625l-28.578125 28.578125v56.039062h15v-49.828125l19.792969-19.789062h102.632812l19.792969 19.789062v49.828125zm0 0"/><path d="m256 201.128906c-28.894531 0-52.402344 23.507813-52.402344 52.402344 0 17.492188 8.75 33.757812 23.109375 43.449219v88.382812h58.578125v-88.378906c14.367188-9.691406 23.117188-25.957031 23.117188-43.453125 0-28.894531-23.507813-52.402344-52.402344-52.402344zm18.140625 85.113282-3.855469 2.144531v81.980469h-28.578125v-81.984376l-3.855469-2.140624c-11.875-6.609376-19.253906-19.144532-19.253906-32.710938 0-20.625 16.777344-37.402344 37.402344-37.402344s37.402344 16.777344 37.402344 37.402344c0 13.570312-7.378906 26.105469-19.261719 32.710938zm0 0"/><path d="m255.996094 227.554688c-14.183594 0-25.722656 11.539062-25.722656 25.722656s11.539062 25.722656 25.722656 25.722656 25.722656-11.539062 25.722656-25.722656-11.539062-25.722656-25.722656-25.722656zm0 36.445312c-5.910156 0-10.722656-4.808594-10.722656-10.722656 0-5.910156 4.8125-10.722656 10.722656-10.722656 5.914062 0 10.722656 4.8125 10.722656 10.722656 0 5.914062-4.808594 10.722656-10.722656 10.722656zm0 0"/><path d="m490.449219 246.308594c-9.25 0-17.15625 5.855468-20.207031 14.054687h-13.386719l-26.832031-26.835937v-11.164063h23.847656c3.054687 8.195313 10.957031 14.050781 20.207031 14.050781 11.882813 0 21.550781-9.667968 21.550781-21.550781 0-11.886719-9.667968-21.554687-21.550781-21.554687-9.25 0-17.152344 5.855468-20.207031 14.054687h-23.847656v-11.167969l26.832031-26.832031h13.386719c3.054687 8.195313 10.957031 14.050781 20.207031 14.050781 11.882812 0 21.550781-9.667968 21.550781-21.550781 0-11.882812-9.667969-21.554687-21.550781-21.554687-9.25 0-17.15625 5.855468-20.207031 14.054687h-19.601563l-20.621094 20.621094v-31.105469h-348.039062v174.226563l-20.621094-20.621094h-19.601563c-3.054687-8.195313-10.957031-14.050781-20.207031-14.050781-11.882812 0-21.550781 9.667968-21.550781 21.550781s9.667969 21.550781 21.550781 21.550781c9.25 0 17.15625-5.851562 20.207031-14.050781h13.386719l26.832031 26.832031v11.167969h-23.847656c-3.050781-8.199219-10.957031-14.054687-20.203125-14.054687-11.886719 0-21.554687 9.667968-21.554687 21.554687 0 11.882813 9.667968 21.550781 21.554687 21.550781 9.246094 0 17.152344-5.855468 20.203125-14.050781h23.851563v11.164063l-26.835938 26.835937h-13.386719c-3.050781-8.199219-10.957031-14.054687-20.207031-14.054687-11.882812 0-21.550781 9.667968-21.550781 21.554687 0 11.882813 9.667969 21.550781 21.550781 21.550781 9.25 0 17.152344-5.855468 20.207031-14.050781h19.601563l20.621094-20.621094v10.285157l46.851562 46.851562h254.339844l46.851563-46.851562v-153.40625l20.621093 20.621093h19.597657c3.054687 8.195313 10.957031 14.050781 20.207031 14.050781 11.882812 0 21.550781-9.667968 21.550781-21.550781 0-11.886719-9.667969-21.554687-21.550781-21.554687zm-16.375-38c3.613281 0 6.554687 2.941406 6.554687 6.554687s-2.9375 6.550781-6.554687 6.550781c-3.609375 0-6.550781-2.9375-6.550781-6.550781s2.941406-6.554687 6.550781-6.554687zm16.375-53c3.613281 0 6.550781 2.941406 6.550781 6.554687s-2.9375 6.550781-6.550781 6.550781-6.554688-2.9375-6.554688-6.550781 2.941407-6.554687 6.554688-6.554687zm-468.898438 156.226562c-3.613281 0-6.550781-2.9375-6.550781-6.550781s2.9375-6.554687 6.550781-6.554687 6.554688 2.941406 6.554688 6.554687-2.941407 6.550781-6.554688 6.550781zm16.375 53c-3.613281 0-6.554687-2.9375-6.554687-6.550781s2.9375-6.554687 6.554687-6.554687c3.609375 0 6.550781 2.941406 6.550781 6.554687s-2.941406 6.550781-6.550781 6.550781zm-16.375 53c-3.613281 0-6.550781-2.9375-6.550781-6.550781s2.9375-6.554687 6.550781-6.554687 6.554688 2.941406 6.554688 6.554687-2.941407 6.550781-6.554688 6.550781zm355.40625 22.464844h-241.914062l-38.0625-38.0625v-105.957031l21.796875 21.796875h20.421875c3.074219 8.496094 11.226562 14.582031 20.769531 14.582031 12.175781 0 22.082031-9.90625 22.082031-22.082031 0-12.175782-9.90625-22.082032-22.082031-22.082032-9.542969 0-17.695312 6.085938-20.769531 14.582032h-14.207031l-28.011719-28.011719v-11.988281h56.800781c3.078125 8.496094 11.226562 14.585937 20.769531 14.585937 12.175781 0 22.085938-9.90625 22.085938-22.085937 0-12.175782-9.90625-22.082032-22.085938-22.082032-9.542969 0-17.691406 6.089844-20.769531 14.582032h-56.800781v-11.984375l28.007812-28.011719h14.207031c3.078126 8.496094 11.226563 14.582031 20.773438 14.582031 12.175781 0 22.082031-9.90625 22.082031-22.082031 0-12.179688-9.90625-22.082031-22.082031-22.082031-9.546875 0-17.695312 6.085937-20.773438 14.582031h-20.417968l-21.796875 21.796875v-55.699219h318.039062v119.617188l-21.796875-21.796875h-20.421875c-3.074219-8.496094-11.226562-14.582031-20.769531-14.582031-12.175781 0-22.082031 9.90625-22.082031 22.082031s9.90625 22.082031 22.082031 22.082031c9.542969 0 17.695312-6.085938 20.769531-14.582031h14.207031l28.011719 28.011719v11.984374h-66.515625c-3.078125-8.492187-11.226562-14.582031-20.769531-14.582031-12.175781 0-22.085937 9.90625-22.085937 22.082031 0 12.179688 9.90625 22.085938 22.085937 22.085938 9.542969 0 17.691406-6.089844 20.769531-14.585938h66.515625v11.988282l-28.011719 28.011718h-14.207031c-3.074219-8.496093-11.226562-14.582031-20.769531-14.582031-12.175781 0-22.082031 9.90625-22.082031 22.082031 0 12.175782 9.90625 22.082032 22.082031 22.082032 9.542969 0 17.695312-6.085938 20.769531-14.582032h20.421875l21.796875-21.796874v42.039062zm-224.070312-129.722656c0-3.90625 3.175781-7.082032 7.082031-7.082032s7.082031 3.175782 7.082031 7.082032c0 3.902344-3.175781 7.082031-7.082031 7.082031s-7.082031-3.175781-7.082031-7.082031zm14.582031-55c0-3.90625 3.175781-7.082032 7.082031-7.082032s7.085938 3.175782 7.085938 7.082032-3.179688 7.082031-7.085938 7.082031-7.082031-3.175781-7.082031-7.082031zm-14.582031-54.996094c0-3.90625 3.175781-7.085938 7.082031-7.085938s7.082031 3.179688 7.082031 7.085938c0 3.902344-3.175781 7.082031-7.082031 7.082031s-7.082031-3.179687-7.082031-7.082031zm206.226562 63.917969c0 3.902343-3.175781 7.082031-7.082031 7.082031s-7.082031-3.179688-7.082031-7.082031c0-3.90625 3.175781-7.085938 7.082031-7.085938s7.082031 3.179688 7.082031 7.085938zm-24.296875 54.996093c0 3.90625-3.175781 7.082032-7.082031 7.082032s-7.085937-3.175782-7.085937-7.082032 3.179687-7.082031 7.085937-7.082031 7.082031 3.175781 7.082031 7.082031zm24.296875 55c0 3.902344-3.175781 7.082032-7.082031 7.082032s-7.082031-3.179688-7.082031-7.082032c0-3.90625 3.175781-7.082031 7.082031-7.082031s7.082031 3.175781 7.082031 7.082031zm131.335938-99.78125c-3.613281 0-6.554688-2.941406-6.554688-6.550781 0-3.613281 2.941407-6.554687 6.554688-6.554687s6.550781 2.9375 6.550781 6.554687c0 3.609375-2.9375 6.550781-6.550781 6.550781zm0 0"/><path d="m397.519531 183.878906h-88.304687v-15h88.304687zm-98.308593 0h-15v-15h15zm-25 0h-15v-15h15zm0 0"/><path d="m320.019531 36h-71.613281v-15h71.613281zm-81.617187 0h-15v-15h15zm-25 0h-15v-15h15zm0 0"/><path d="m248.5 360.5v-22.5h15v22.5zm0-32.5-.003906-15h15l.003906 15zm-.003906-25v-15h15v15zm0 0"/></svg>