<svg height="512pt" viewBox="-26 0 511 512" width="512pt" xmlns="http://www.w3.org/2000/svg"><path d="m287.34375 99.839844 7.5-12.992188 49.058594 28.332032-7.5 12.992187zm0 0"/><path d="m116.066406 115.203125 49.0625-28.332031 7.5 12.988281-49.058594 28.332031zm0 0"/><path d="m51.085938 227.351562h15v57.128907h-15zm0 0"/><path d="m115.996094 396.734375 7.503906-12.988281 49.140625 28.378906-7.5 12.988281zm0 0"/><path d="m287.347656 412.175781 49.140625-28.378906 7.503907 12.988281-49.144532 28.378906zm0 0"/><path d="m393.882812 227.351562h15v57.128907h-15zm0 0"/><path d="m229.984375 395.832031c-32.027344 0-58.085937 26.058594-58.085937 58.082031 0 32.03125 26.058593 58.085938 58.085937 58.085938s58.082031-26.054688 58.082031-58.085938c0-32.023437-26.054687-58.082031-58.082031-58.082031zm0 101.167969c-23.757813 0-43.085937-19.328125-43.085937-43.085938 0-23.753906 19.328124-43.082031 43.085937-43.082031s43.082031 19.328125 43.082031 43.082031c0 23.757813-19.324218 43.085938-43.082031 43.085938zm0 0"/><path d="m229.984375 116.167969c32.027344 0 58.082031-26.058594 58.082031-58.082031 0-32.03125-26.054687-58.085938-58.082031-58.085938s-58.085937 26.054688-58.085937 58.085938c0 32.023437 26.058593 58.082031 58.085937 58.082031zm0-101.167969c23.757813 0 43.082031 19.328125 43.082031 43.085938 0 23.753906-19.324218 43.082031-43.082031 43.082031s-43.085937-19.328125-43.085937-43.082031c0-23.757813 19.328124-43.085938 43.085937-43.085938zm0 0"/><path d="m401.382812 214.855469c32.027344 0 58.085938-26.054688 58.085938-58.085938 0-32.027343-26.058594-58.082031-58.085938-58.082031-32.027343 0-58.082031 26.054688-58.082031 58.082031 0 32.03125 26.054688 58.085938 58.082031 58.085938zm0-101.167969c23.757813 0 43.085938 19.328125 43.085938 43.082031 0 23.757813-19.328125 43.085938-43.085938 43.085938-23.753906 0-43.082031-19.328125-43.082031-43.085938 0-23.753906 19.328125-43.082031 43.082031-43.082031zm0 0"/><path d="m401.382812 296.976562c-32.027343 0-58.082031 26.054688-58.082031 58.082032s26.054688 58.082031 58.082031 58.082031c32.027344 0 58.085938-26.054687 58.085938-58.082031s-26.058594-58.082032-58.085938-58.082032zm0 101.167969c-23.753906 0-43.082031-19.328125-43.082031-43.085937 0-23.753906 19.328125-43.082032 43.082031-43.082032 23.757813 0 43.085938 19.328126 43.085938 43.082032 0 23.757812-19.328125 43.085937-43.085938 43.085937zm0 0"/><path d="m58.585938 214.855469c32.023437 0 58.082031-26.054688 58.082031-58.085938 0-32.027343-26.058594-58.082031-58.082031-58.082031-32.027344 0-58.085938 26.054688-58.085938 58.082031 0 32.03125 26.054688 58.085938 58.085938 58.085938zm0-101.167969c23.753906 0 43.082031 19.328125 43.082031 43.082031 0 23.757813-19.328125 43.085938-43.082031 43.085938-23.757813 0-43.085938-19.328125-43.085938-43.085938 0-23.753906 19.328125-43.082031 43.085938-43.082031zm0 0"/><path d="m58.585938 296.976562c-32.027344 0-58.085938 26.054688-58.085938 58.082032s26.058594 58.082031 58.085938 58.082031c32.023437 0 58.082031-26.054687 58.082031-58.082031s-26.058594-58.082032-58.082031-58.082032zm0 101.167969c-23.757813 0-43.085938-19.328125-43.085938-43.085937 0-23.753906 19.328125-43.082032 43.085938-43.082032 23.753906 0 43.082031 19.328126 43.082031 43.082032 0 23.757812-19.328125 43.085937-43.082031 43.085937zm0 0"/><path d="m359.6875 214.183594-15.476562 26.8125-18.386719-31.855469 18.234375-10.546875-7.511719-12.984375-18.222656 10.539063-46.574219-80.695313-12.992188 7.496094 46.582032 80.710937-67.855469 39.25v-114.238281h-15v114.238281l-67.859375-39.25 46.585938-80.710937-12.992188-7.496094-46.578125 80.695313-18.222656-10.539063-7.511719 12.984375 18.234375 10.546875-18.386719 31.855469-15.476562-26.816406-12.992188 7.5 19.8125 34.320312-19.742187 34.199219 12.992187 7.5 15.40625-26.695313 18.3125 31.722656-18.171875 10.511719 7.511719 12.984375 18.15625-10.503906 46.652344 80.832031 12.992187-7.5-46.660156-80.839843 67.933594-39.296876v114.414063h15v-114.414063l67.933593 39.296876-46.660156 80.839843 12.992188 7.496094 46.652344-80.828125 18.15625 10.503906 7.511718-12.984375-18.167968-10.511719 18.308593-31.722656 15.40625 26.691406 12.992188-7.496093-19.738281-34.199219 19.808593-34.324219zm-235.269531 41.816406 22.710937-39.347656 67.875 39.257812-67.953125 39.308594zm188.496093 39.21875-67.949218-39.304688 67.875-39.261718 22.710937 39.351562zm0 0"/><path d="m253.378906 477.308594-10.605468-10.605469c3.40625-3.40625 5.285156-7.949219 5.285156-12.789063 0-2.453124-.484375-4.835937-1.433594-7.078124l13.8125-5.851563c1.738281 4.105469 2.621094 8.453125 2.621094 12.929687-.003906 8.84375-3.4375 17.152344-9.679688 23.394532zm-36.183594-36.179688-10.605468-10.605468c4.625-4.625 10.457031-7.75 16.863281-9.03125l2.941406 14.707031c-3.492187.699219-6.671875 2.40625-9.199219 4.929687zm25.480469-.09375c-2.542969-2.503906-5.734375-4.1875-9.234375-4.859375l2.839844-14.730469c6.414062 1.238282 12.269531 4.316407 16.925781 8.910157zm0 0"/><path d="m253.378906 81.476562-10.605468-10.605468c3.40625-3.40625 5.285156-7.949219 5.285156-12.785156 0-2.457032-.484375-4.839844-1.433594-7.082032l13.8125-5.851562c1.738281 4.105468 2.621094 8.453125 2.621094 12.929687-.003906 8.847657-3.4375 17.152344-9.679688 23.394531zm-36.183594-36.179687-10.605468-10.605469c4.625-4.625 10.457031-7.75 16.859375-9.03125l2.945312 14.707032c-3.492187.699218-6.671875 2.402343-9.199219 4.929687zm25.484376-.09375c-2.542969-2.507813-5.738282-4.1875-9.238282-4.859375l2.839844-14.730469c6.414062 1.234375 12.269531 4.316407 16.925781 8.90625zm0 0"/><path d="m424.777344 180.164062-10.605469-10.605468c3.40625-3.40625 5.285156-7.949219 5.285156-12.789063 0-2.453125-.480469-4.835937-1.433593-7.078125l13.816406-5.851562c1.734375 4.101562 2.617187 8.453125 2.617187 12.929687 0 8.84375-3.4375 17.152344-9.679687 23.394531zm-36.179688-36.179687-10.609375-10.605469c4.628907-4.625 10.457031-7.75 16.863281-9.03125l2.945313 14.707032c-3.492187.699218-6.675781 2.402343-9.199219 4.929687zm25.480469-.09375c-2.542969-2.507813-5.734375-4.1875-9.234375-4.863281l2.835938-14.726563c6.417968 1.234375 12.273437 4.316407 16.929687 8.910157zm0 0"/><path d="m424.777344 378.453125-10.605469-10.605469c3.40625-3.410156 5.285156-7.953125 5.285156-12.789062 0-2.457032-.480469-4.839844-1.433593-7.082032l13.816406-5.851562c1.734375 4.105469 2.617187 8.453125 2.617187 12.933594 0 8.84375-3.4375 17.152344-9.679687 23.394531zm-36.179688-36.183594-10.609375-10.605469c4.628907-4.625 10.457031-7.746093 16.863281-9.027343l2.945313 14.707031c-3.492187.699219-6.675781 2.402344-9.199219 4.925781zm25.480469-.089843c-2.542969-2.507813-5.734375-4.1875-9.234375-4.863282l2.835938-14.726562c6.417968 1.234375 12.273437 4.316406 16.929687 8.90625zm0 0"/><path d="m81.976562 180.164062-10.605468-10.605468c3.40625-3.40625 5.285156-7.949219 5.285156-12.789063 0-2.453125-.480469-4.835937-1.433594-7.078125l13.8125-5.851562c1.738282 4.101562 2.621094 8.453125 2.621094 12.929687 0 8.84375-3.4375 17.152344-9.679688 23.394531zm-36.179687-36.179687-10.605469-10.605469c4.625-4.625 10.457032-7.75 16.863282-9.03125l2.941406 14.707032c-3.492188.699218-6.675782 2.402343-9.199219 4.929687zm25.480469-.09375c-2.542969-2.507813-5.734375-4.1875-9.234375-4.863281l2.835937-14.726563c6.417969 1.234375 12.273438 4.316407 16.929688 8.910157zm0 0"/><path d="m81.976562 378.453125-10.605468-10.605469c3.40625-3.410156 5.285156-7.953125 5.285156-12.789062 0-2.457032-.480469-4.839844-1.433594-7.082032l13.8125-5.851562c1.738282 4.105469 2.621094 8.453125 2.621094 12.933594 0 8.84375-3.4375 17.152344-9.679688 23.394531zm-36.179687-36.183594-10.605469-10.605469c4.625-4.625 10.457032-7.746093 16.863282-9.027343l2.941406 14.707031c-3.492188.699219-6.675782 2.402344-9.199219 4.925781zm25.480469-.089843c-2.542969-2.507813-5.734375-4.1875-9.234375-4.863282l2.835937-14.726562c6.417969 1.234375 12.273438 4.316406 16.929688 8.90625zm0 0"/></svg>