<?xml version="1.0" encoding="iso-8859-1"?>
<!-- Generator: Adobe Illustrator 19.0.0, SVG Export Plug-In . SVG Version: 6.00 Build 0)  -->
<svg version="1.1" id="Capa_1" xmlns="http://www.w3.org/2000/svg" xmlns:xlink="http://www.w3.org/1999/xlink" x="0px" y="0px"
	 viewBox="0 0 512 512" style="enable-background:new 0 0 512 512;" xml:space="preserve">
<g>
	<g>
		<g>
			<path d="M112.67,333.083c-0.221-0.203-0.445-0.404-0.67-0.604V288H80v32H48v-32H16v32H0v160h16v32h32v-32h32v32h32v-44.48
				c19.599-17.321,21.445-47.251,4.123-66.85c-0.199-0.225-0.4-0.448-0.603-0.67C133.211,380.734,131.935,350.775,112.67,333.083z
				 M80,448H32v-32h48c8.837,0,16,7.163,16,16S88.837,448,80,448z M80,384H32v-32h48c8.837,0,16,7.163,16,16S88.837,384,80,384z"/>
			<rect x="96" width="32" height="32"/>
			<rect x="160" width="32" height="32"/>
			<polygon points="32,32 64,32 64,0 0,0 0,256 32,256 			"/>
			<path d="M512,0H224v32h256v320H160v32h27.52l-24,96H144v32h256v-32h-51.52l-24-96H512V0z M196.48,480l24-96h71.04l24,96H196.48z"
				/>
			<polygon points="239.008,197.648 288,246.624 400,134.624 400,176 432,176 432,80 336,80 336,112 377.376,112 288,201.376 
				240.992,154.352 133.744,243.696 154.256,268.304 			"/>
		</g>
	</g>
</g>
<g>
</g>
<g>
</g>
<g>
</g>
<g>
</g>
<g>
</g>
<g>
</g>
<g>
</g>
<g>
</g>
<g>
</g>
<g>
</g>
<g>
</g>
<g>
</g>
<g>
</g>
<g>
</g>
<g>
</g>
</svg>
