<svg height="432pt" viewBox="-18 0 432 432.85845" width="432pt" xmlns="http://www.w3.org/2000/svg"><path d="m191.023438 306.144531c-.199219 0-.40625-.007812-.613282-.027343-13.011718-1.160157-25.328125-5.078126-36.597656-11.644532-3.261719-1.902344-4.363281-6.082031-2.46875-9.335937 1.894531-3.257813 6.078125-4.351563 9.335938-2.464844 9.53125 5.554687 19.945312 8.867187 30.945312 9.847656 3.753906.332031 6.527344 3.652344 6.195312 7.40625-.324218 3.546875-3.296874 6.21875-6.796874 6.21875zm21.332031-.851562c-3.265625 0-6.152344-2.347657-6.71875-5.675781-.640625-3.710938 1.851562-7.238282 5.574219-7.878907 10.863281-1.867187 20.972656-6.019531 30.039062-12.332031 3.09375-2.148438 7.347656-1.394531 9.5 1.699219s1.390625 7.347656-1.699219 9.5c-10.722656 7.472656-22.675781 12.378906-35.535156 14.585937-.386719.066406-.78125.101563-1.160156.101563zm-72.03125-22.96875c-1.753907 0-3.507813-.671875-4.839844-2.011719-9.09375-9.140625-16.207031-20.355469-20.570313-32.421875-1.277343-3.546875.554688-7.457031 4.101563-8.738281 3.558594-1.300782 7.464844.558594 8.738281 4.097656 3.6875 10.207031 9.707032 19.695312 17.40625 27.433594 2.660156 2.671875 2.648438 6.996094-.027344 9.652344-1.324218 1.332031-3.070312 1.988281-4.808593 1.988281zm120.632812-4.878907c-1.554687 0-3.121093-.527343-4.402343-1.613281-2.878907-2.433593-3.238282-6.746093-.804688-9.621093 7.046875-8.332032 12.277344-18.273438 15.125-28.746094.992188-3.632813 4.753906-5.792969 8.378906-4.792969 3.632813.984375 5.789063 4.738281 4.792969 8.378906-3.367187 12.386719-9.546875 24.132813-17.871094 33.972657-1.351562 1.601562-3.28125 2.421874-5.21875 2.421874zm-144.195312-45.917968c-3.519531 0-6.503907-2.707032-6.796875-6.273438-.203125-2.488281-.308594-4.988281-.308594-7.519531 0-10.488281 1.8125-20.753906 5.378906-30.515625 1.300782-3.539062 5.234375-5.339844 8.761719-4.066406 3.539063 1.300781 5.359375 5.222656 4.066406 8.761718-3.019531 8.253907-4.554687 16.9375-4.554687 25.820313 0 2.160156.09375 4.300781.265625 6.414063.300781 3.757812-2.492188 7.050781-6.253907 7.359374-.183593.011719-.371093.019532-.558593.019532zm163.554687-6.800782c-3.765625 0-6.828125-2.882812-6.828125-6.652343 0-.132813.015625-.605469.019531-.742188-.011718-10.6875-2.371093-21.359375-7.023437-31.324219-1.59375-3.414062-.121094-7.476562 3.300781-9.074218 3.417969-1.59375 7.480469-.121094 9.070313 3.300781 5.5 11.777344 8.292969 24.398437 8.292969 37.5 0 3.773437-3.058594 6.992187-6.832032 6.992187zm-148.960937-47.261718c-1.359375 0-2.726563-.40625-3.925781-1.246094-3.082032-2.171875-3.820313-6.425781-1.648438-9.511719 7.414062-10.519531 17.214844-19.480469 28.335938-25.894531 3.246093-1.882812 7.429687-.765625 9.324218 2.5 1.886719 3.269531.769532 7.441406-2.5 9.328125-9.417968 5.433594-17.71875 13.019531-23.996094 21.933594-1.328124 1.886719-3.441406 2.890625-5.589843 2.890625zm129.832031-5.53125c-1.953125 0-3.882812-.828125-5.238281-2.441406-7.003907-8.355469-15.914063-15.199219-25.753907-19.800782-3.414062-1.601562-4.886718-5.660156-3.292968-9.078125 1.601562-3.414062 5.640625-4.875 9.078125-3.292969 11.628906 5.4375 22.152343 13.53125 30.433593 23.398438 2.421876 2.886719 2.039063 7.191406-.84375 9.621094-1.28125 1.066406-2.835937 1.59375-4.382812 1.59375zm-83.90625-26.546875c-3.011719 0-5.773438-2.015625-6.589844-5.066407-.96875-3.648437 1.199219-7.386718 4.839844-8.359374 7.417969-1.972657 15.109375-2.972657 22.871094-2.972657h.121094c5.132812 0 10.304687.453125 15.359374 1.34375 3.714844.65625 6.191407 4.195313 5.53125 7.90625-.652343 3.714844-4.207031 6.207031-7.90625 5.535157-4.273437-.753907-8.644531-1.132813-12.992187-1.132813-.035156 0-.066406 0-.105469 0-6.578125 0-13.09375.84375-19.359375 2.519531-.597656.152344-1.179687.226563-1.769531.226563zm0 0"/><path d="m198.402344 272.347656c-30.113282 0-54.613282-24.5-54.613282-54.613281 0-30.117187 24.5-54.613281 54.613282-54.613281 30.113281 0 54.613281 24.496094 54.613281 54.613281 0 30.113281-24.5 54.613281-54.613281 54.613281zm0-95.574218c-22.585938 0-40.960938 18.375-40.960938 40.960937s18.375 40.957031 40.960938 40.957031c22.585937 0 40.960937-18.371094 40.960937-40.957031s-18.375-40.960937-40.960937-40.960937zm0 0"/><path d="m182.417969 190.519531c0-.480469.320312-.808593.804687-.808593h19.480469c11.074219 0 16.566406 5.660156 16.566406 14.46875 0 6.386718-3.066406 10.265624-7.355469 11.964843v.160157c3.722657 1.054687 8.328126 5.335937 8.328126 12.695312 0 10.269531-6.464844 15.679688-17.945313 15.679688h-19.074219c-.488281 0-.808594-.320313-.808594-.804688v-53.355469zm20.125 22.957031c6.058593 0 9.621093-3.476562 9.621093-8.570312 0-5.253906-3.5625-8.644531-9.621093-8.644531h-12.453125c-.320313 0-.480469.160156-.480469.484375v16.246094c0 .328124.160156.488281.480469.488281h12.453125zm-12.453125 24.65625h12.851562c6.546875 0 10.109375-3.558593 10.109375-9.054687 0-5.414063-3.5625-9.054687-10.109375-9.054687h-12.851562c-.320313 0-.480469.164062-.480469.488281v17.132812c0 .328125.160156.488281.480469.488281zm0 0"/><path d="m130.136719 135.8125h-116.054688c-3.773437 0-6.824219-3.050781-6.824219-6.824219v-15.609375c0-14.300781 12.929688-25.96875 28.945313-26.246094l34.792969-5.753906c.734375-.121094 1.492187-.121094 2.226562 0l34.792969 5.753906c16.015625.277344 28.949219 11.945313 28.949219 26.246094v15.609375c-.003906 3.773438-3.054688 6.824219-6.828125 6.824219zm-109.226563-13.652344h102.398438v-8.78125c0-6.945312-7.125-12.601562-15.886719-12.601562-.375 0-.746094-.03125-1.113281-.09375l-34.199219-5.652344-34.199219 5.652344c-.367187.0625-.742187.09375-1.113281.09375-8.761719 0-15.886719 5.652344-15.886719 12.601562zm0 0"/><path d="m88.535156 94.886719h-33.125c-11.113281 0-20.160156-9.046875-20.160156-20.167969v-30.21875c0-19.753906 16.074219-35.828125 35.828125-35.828125h1.800781c19.75 0 35.824219 16.074219 35.824219 35.828125v30.21875c0 11.121094-9.046875 20.167969-20.167969 20.167969zm-17.457031-72.492188c-12.195313 0-22.109375 9.914063-22.109375 22.105469v30.21875c0 3.554688 2.886719 6.445312 6.441406 6.445312h33.125c3.554688 0 6.445313-2.890624 6.445313-6.445312v-30.21875c0-12.195312-9.914063-22.105469-22.105469-22.105469zm0 0"/><path d="m389.550781 374.746094h-116.054687c-3.773438 0-6.828125-3.054688-6.828125-6.828125v-15.605469c0-14.300781 12.933593-25.96875 28.949219-26.246094l34.792968-5.753906c.734375-.121094 1.492188-.121094 2.226563 0l34.792969 5.753906c16.015624.277344 28.949218 11.945313 28.949218 26.246094v15.605469c-.003906 3.773437-3.054687 6.828125-6.828125 6.828125zm-109.226562-13.652344h102.398437v-8.78125c0-6.945312-7.128906-12.601562-15.886718-12.601562-.375 0-.75-.03125-1.113282-.09375l-34.199218-5.652344-34.199219 5.652344c-.367188.0625-.742188.09375-1.113281.09375-8.761719 0-15.886719 5.652343-15.886719 12.601562zm0 0"/><path d="m347.949219 333.820312h-33.125c-11.113281 0-20.160157-9.046874-20.160157-20.167968v-30.21875c0-19.753906 16.074219-35.828125 35.824219-35.828125h1.800781c19.753907 0 35.828126 16.074219 35.828126 35.828125v30.21875c-.003907 11.121094-9.046876 20.167968-20.167969 20.167968zm-17.460938-72.492187c-12.191406 0-22.105469 9.914063-22.105469 22.105469v30.21875c0 3.554687 2.886719 6.445312 6.441407 6.445312h33.125c3.554687 0 6.445312-2.890625 6.445312-6.445312v-30.21875c0-12.195313-9.914062-22.105469-22.105469-22.105469zm0 0"/><path d="m382.722656 210.90625h-13.652344c0-90.6875-67.875-166.53125-157.882812-176.417969l1.496094-13.574219c96.9375 10.652344 170.039062 92.332032 170.039062 189.992188zm0 0"/><path d="m191.574219 402.054688c-105.398438 0-191.144531-85.746094-191.144531-191.148438h13.652343c0 97.875 79.621094 177.492188 177.492188 177.492188zm0 0"/><path d="m226.855469 71.332031-31.59375-47.394531 47.875-23.9375 6.105469 12.214844-34.046876 17.015625 23.019532 34.527343zm0 0"/><path d="m173.335938 432.859375-10.546876-8.667969 26.347657-32.058594-32.171875-20.332031 7.289062-11.550781 45.253906 28.601562zm0 0"/></svg>